<svg xmlns="http://www.w3.org/2000/svg">
    <symbol id="heart" viewBox="0 0 17 15">
        <path d="M8.5 14.9933C7.95175 14.5169 7.3321 14.0213 6.67675 13.4941H6.66825C4.36051 11.645 1.74507 9.55276 0.589918 7.0457C0.210409 6.24754 0.00928776 5.37915 9.69506e-06 4.49866C-0.00252482 3.29051 0.491974 2.13234 1.37175 1.28592C2.25153 0.439505 3.44233 -0.0237223 4.67501 0.000936424C5.67854 0.00248964 6.66046 0.286693 7.5038 0.819688C7.87437 1.05538 8.20966 1.34047 8.5 1.66676C8.79196 1.34175 9.12734 1.05682 9.49705 0.819688C10.34 0.286587 11.3217 0.00236782 12.325 0.000936424C13.5577 -0.0237223 14.7485 0.439505 15.6282 1.28592C16.508 2.13234 17.0025 3.29051 17 4.49866C16.9913 5.38056 16.7902 6.25043 16.4101 7.04986C15.2549 9.55693 12.6403 11.6484 10.3326 13.4941L10.3241 13.5008C9.6679 14.0247 9.0491 14.5202 8.50085 15L8.5 14.9933Z"/>
    </symbol>
    <symbol id="eye" viewBox="0 0 24 24">
        <path fill-rule="evenodd" clip-rule="evenodd"
              d="M1.79882 1.59857C2.13076 1.26662 2.66895 1.26662 3.0009 1.59857L22.2009 20.7986C22.5329 21.1306 22.5329 21.6687 22.2009 22.0007C21.869 22.3326 21.3308 22.3326 20.9989 22.0007L17.6841 18.6859C17.5784 18.5802 17.4171 18.5533 17.2828 18.619C15.6127 19.4359 13.8125 19.8496 11.9999 19.8496C7.45731 19.8496 2.97413 17.2488 0.439591 12.1798C0.319941 11.9405 0.319941 11.6588 0.439591 11.4195C1.53705 9.22459 2.99942 7.49395 4.67072 6.23685C4.75174 6.17591 4.80235 6.08284 4.80947 5.98171C4.81658 5.88059 4.7795 5.78134 4.70782 5.70966L1.79882 2.80065C1.46687 2.46871 1.46687 1.93052 1.79882 1.59857ZM6.42541 7.42725C6.30508 7.30692 6.11564 7.29057 5.97648 7.38851C4.53807 8.40084 3.25445 9.81207 2.24915 11.6303C2.19088 11.7357 2.19088 11.8636 2.24915 11.969C4.54945 16.1294 8.30308 18.1496 11.9999 18.1496C13.2595 18.1496 14.5279 17.9149 15.7439 17.4392C15.8539 17.3961 15.9348 17.3005 15.959 17.1849C15.9832 17.0693 15.9474 16.9493 15.8639 16.8657L13.7995 14.8013C13.6945 14.6964 13.5348 14.669 13.4009 14.7331C12.9771 14.9359 12.5023 15.0496 11.9999 15.0496C10.2049 15.0496 8.74987 13.5946 8.74987 11.7996C8.74987 11.2973 8.86362 10.8224 9.06643 10.3986C9.1305 10.2647 9.10316 10.105 8.99821 10L6.42541 7.42725Z"
        />
        <path d="M11.7365 5.45304L10.1739 3.8905C10.7781 3.79672 11.3882 3.74961 11.9998 3.74961C16.5424 3.74961 21.0256 6.35042 23.5601 11.4195C23.6798 11.6588 23.6798 11.9405 23.5601 12.1798C22.9818 13.3363 22.3023 14.3639 21.5444 15.261L20.338 14.0546C20.8524 13.4313 21.3263 12.7363 21.7506 11.969C21.8088 11.8636 21.8088 11.7357 21.7506 11.6303C19.4503 7.4699 15.6966 5.44962 11.9998 5.44962C11.9121 5.44962 11.8243 5.45076 11.7365 5.45304Z"
        />
    </symbol>
    <symbol id="cross" viewBox="0 0 48 48">
        <path d="M40.6154 37.8456C41.3801 38.6103 41.3801 39.8501 40.6154 40.6148C39.8507 41.3796 38.6108 41.3796 37.8461 40.6149L24 26.7687L10.1538 40.6149C9.38913 41.3796 8.14931 41.3796 7.3846 40.6148C6.6199 39.8501 6.6199 38.6103 7.3846 37.8456L21.2308 23.9995L7.38456 10.1533C6.61986 9.3886 6.61986 8.14878 7.38456 7.38407C8.14926 6.61937 9.38909 6.61937 10.1538 7.38407L24 21.2303L37.8462 7.38407C38.6109 6.61937 39.8507 6.61938 40.6154 7.38408C41.3801 8.14878 41.3801 9.38861 40.6154 10.1533L26.7692 23.9995L40.6154 37.8456Z"
        />
    </symbol>
    <symbol id="logo" width="28" height="32" viewBox="0 0 28 32">
        <path fill-rule="evenodd" clip-rule="evenodd" d="M12.7552 13.5981C11.1501 13.9147 9.77955 15.2319 9.37415 16.8572C8.94816 18.3749 9.41119 20.0995 10.506 21.2035C11.5514 22.3054 13.1771 22.7951 14.6341 22.4193C16.2433 22.0457 17.5851 20.661 17.9226 18.9998C18.2662 17.5201 17.7847 15.8757 16.7187 14.8203C15.7083 13.7649 14.1649 13.292 12.7552 13.5981M12.3025 8.05922C8.49955 8.54683 5.15961 11.5421 4.17595 15.3417C3.3137 18.4172 4.0319 21.8874 6.01363 24.355C8.15177 27.1054 11.7716 28.5492 15.1588 27.9561C16.4327 27.7239 17.7374 27.3207 18.7828 26.5186C19.4475 25.9107 18.5317 24.6843 17.8156 25.2922C15.4531 26.7339 12.3848 26.8563 9.93595 25.5645C7.81222 24.4816 6.19267 22.413 5.63498 20.0467C4.96 17.3427 5.71936 14.3221 7.59202 12.2957C8.85968 10.8772 10.6171 9.92733 12.4774 9.6698C14.8893 9.30674 17.439 10.1215 19.2149 11.8355C20.7583 13.2878 21.7255 15.3691 21.8387 17.5179C21.8737 20.0467 21.8058 22.5798 21.8696 25.1086C22.0116 25.9212 23.2566 25.9276 23.415 25.1212C23.4727 22.7951 23.4192 20.4668 23.4397 18.1385C23.4727 15.1538 22.1433 12.188 19.8899 10.2967C17.8135 8.50884 14.988 7.66027 12.3025 8.05922M23.4418 0.0042217C24.7094 -0.00211085 25.9771 0 27.2448 0.00211085C27.2489 5.97371 27.2448 11.9432 27.2468 17.9148C27.2941 21.0747 26.2282 24.2347 24.304 26.7023C22.2174 29.4231 19.1058 31.2955 15.77 31.8232C12.6935 32.3382 9.45234 31.7176 6.76476 30.0986C4.32823 28.6485 2.35473 26.4025 1.20026 23.7661C-0.217621 20.5745 -0.384309 16.8256 0.726945 13.5094C1.73736 10.455 3.81582 7.79326 6.49929 6.11513C9.298 4.33569 12.7408 3.66866 15.982 4.26181C18.8095 4.74519 21.4271 6.22912 23.4439 8.30619C23.4397 5.53887 23.4418 2.77155 23.4418 0.0042217"/>
    </symbol>
    <symbol id="sunny" width="40" height="40" viewBox="0 0 40 40">
        <g filter="url(#filter0_d_0_583)">
            <path fill-rule="evenodd" clip-rule="evenodd" d="M20 30C25.5228 30 30 25.5228 30 20C30 14.4772 25.5228 10 20 10C14.4772 10 10 14.4772 10 20C10 25.5228 14.4772 30 20 30Z"/>
        </g>
        <defs>
            <filter id="filter0_d_0_583" x="0" y="0" width="40" height="40" filterUnits="userSpaceOnUse" color-interpolation-filters="sRGB">
                <feFlood flood-opacity="0" result="BackgroundImageFix"/>
                <feColorMatrix in="SourceAlpha" type="matrix" values="0 0 0 0 0 0 0 0 0 0 0 0 0 0 0 0 0 0 127 0" result="hardAlpha"/>
                <feOffset/>
                <feGaussianBlur stdDeviation="5"/>
                <feColorMatrix type="matrix" values="0 0 0 0 1 0 0 0 0 1 0 0 0 0 1 0 0 0 1 0"/>
                <feBlend mode="normal" in2="BackgroundImageFix" result="effect1_dropShadow_0_583"/>
                <feBlend mode="normal" in="SourceGraphic" in2="effect1_dropShadow_0_583" result="shape"/>
            </filter>
        </defs>
    </symbol>
    <symbol id="star" width="12" height="12" viewBox="0 0 12 12">
        <path
                fill-rule="evenodd"
                clip-rule="evenodd"
                d="M6 9.95016L2.2918 12L3 7.65836L0 4.58359L4.1459 3.95016L6 0L7.8541 3.95016L12 4.58359L9 7.65836L9.7082 12L6 9.95016Z"
                fill="#1EB6FF"
        />
    </symbol>
    <symbol id="featured-arrow" width="16" height="13" viewBox="0 0 16 13">
        <path d="M1 6.99609H9" stroke-width="2" stroke-linecap="round" stroke-linejoin="round"/>
        <path
                fill-rule="evenodd"
                clip-rule="evenodd"
                d="M9 1.99609L15 6.99609L9 11.9961V1.99609Z"
                stroke-width="2"
                stroke-linecap="round"
                stroke-linejoin="round"
        />
    </symbol>
    <symbol id="nav-arrow" width="8" height="12" viewBox="0 0 8 12">
        <path
                fill-rule="evenodd"
                clip-rule="evenodd"
                d="M1 1L7 6L1 11V1Z"
                stroke-width="2"
                stroke-linecap="round"
                stroke-linejoin="round"
        />
    </symbol>
</svg>